<svg width="103" height="97" viewBox="0 0 103 97" fill="none" xmlns="http://www.w3.org/2000/svg">
<circle cx="3.5" cy="3.5" r="3.5" fill="black"/>
<circle cx="3.5" cy="23.5" r="3.5" fill="black"/>
<circle cx="3.5" cy="43.5" r="3.5" fill="black"/>
<circle cx="3.5" cy="63.5" r="3.5" fill="black"/>
<circle cx="3.5" cy="83.5" r="3.5" fill="black"/>
<circle cx="3.5" cy="3.5" r="3.5" fill="black"/>
<circle cx="3.5" cy="23.5" r="3.5" fill="black"/>
<circle cx="3.5" cy="43.5" r="3.5" fill="black"/>
<circle cx="3.5" cy="63.5" r="3.5" fill="black"/>
<circle cx="3.5" cy="83.5" r="3.5" fill="black"/>
<circle cx="3.5" cy="3.5" r="3.5" fill="black"/>
<circle cx="3.5" cy="23.5" r="3.5" fill="black"/>
<circle cx="3.5" cy="43.5" r="3.5" fill="black"/>
<circle cx="3.5" cy="63.5" r="3.5" fill="black"/>
<circle cx="3.5" cy="83.5" r="3.5" fill="black"/>
<circle cx="3.5" cy="3.5" r="3.5" fill="black"/>
<circle cx="3.5" cy="23.5" r="3.5" fill="black"/>
<circle cx="3.5" cy="43.5" r="3.5" fill="black"/>
<circle cx="3.5" cy="63.5" r="3.5" fill="black"/>
<circle cx="3.5" cy="83.5" r="3.5" fill="black"/>
<circle cx="3.5" cy="13.5" r="3.5" fill="#9D50BB"/>
<circle cx="3.5" cy="33.5" r="3.5" fill="#9D50BB"/>
<circle cx="3.5" cy="53.5" r="3.5" fill="#9D50BB"/>
<circle cx="3.5" cy="73.5" r="3.5" fill="#9D50BB"/>
<circle cx="3.5" cy="93.5" r="3.5" fill="#9D50BB"/>
<circle cx="3.5" cy="13.5" r="3.5" fill="#9D50BB"/>
<circle cx="3.5" cy="33.5" r="3.5" fill="#9D50BB"/>
<circle cx="3.5" cy="53.5" r="3.5" fill="#9D50BB"/>
<circle cx="3.5" cy="73.5" r="3.5" fill="#9D50BB"/>
<circle cx="3.5" cy="93.5" r="3.5" fill="#9D50BB"/>
<circle cx="15.5" cy="3.5" r="3.5" fill="black"/>
<circle cx="15.5" cy="23.5" r="3.5" fill="black"/>
<circle cx="15.5" cy="43.5" r="3.5" fill="black"/>
<circle cx="15.5" cy="63.5" r="3.5" fill="black"/>
<circle cx="15.5" cy="83.5" r="3.5" fill="black"/>
<circle cx="15.5" cy="3.5" r="3.5" fill="black"/>
<circle cx="15.5" cy="23.5" r="3.5" fill="black"/>
<circle cx="15.5" cy="43.5" r="3.5" fill="black"/>
<circle cx="15.5" cy="63.5" r="3.5" fill="black"/>
<circle cx="15.5" cy="83.5" r="3.5" fill="black"/>
<circle cx="15.5" cy="3.5" r="3.5" fill="black"/>
<circle cx="15.5" cy="23.5" r="3.5" fill="black"/>
<circle cx="15.5" cy="43.5" r="3.5" fill="black"/>
<circle cx="15.5" cy="63.5" r="3.5" fill="black"/>
<circle cx="15.5" cy="83.5" r="3.5" fill="black"/>
<circle cx="15.5" cy="3.5" r="3.5" fill="black"/>
<circle cx="15.5" cy="23.5" r="3.5" fill="black"/>
<circle cx="15.5" cy="43.5" r="3.5" fill="black"/>
<circle cx="15.5" cy="63.5" r="3.5" fill="black"/>
<circle cx="15.5" cy="83.5" r="3.5" fill="black"/>
<circle cx="15.5" cy="13.5" r="3.5" fill="#9D50BB"/>
<circle cx="15.5" cy="33.5" r="3.5" fill="#9D50BB"/>
<circle cx="15.5" cy="53.5" r="3.5" fill="#9D50BB"/>
<circle cx="15.5" cy="73.5" r="3.5" fill="#9D50BB"/>
<circle cx="15.5" cy="93.5" r="3.5" fill="#9D50BB"/>
<circle cx="15.5" cy="13.5" r="3.5" fill="#9D50BB"/>
<circle cx="15.5" cy="33.5" r="3.5" fill="#9D50BB"/>
<circle cx="15.5" cy="53.5" r="3.5" fill="#9D50BB"/>
<circle cx="15.5" cy="73.5" r="3.5" fill="#9D50BB"/>
<circle cx="15.5" cy="93.5" r="3.5" fill="#9D50BB"/>
<circle cx="27.5" cy="3.5" r="3.5" fill="#9D50BB"/>
<circle cx="27.5" cy="23.5" r="3.5" fill="#9D50BB"/>
<circle cx="27.5" cy="43.5" r="3.5" fill="#9D50BB"/>
<circle cx="27.5" cy="63.5" r="3.5" fill="#9D50BB"/>
<circle cx="27.5" cy="83.5" r="3.5" fill="#9D50BB"/>
<circle cx="27.5" cy="3.5" r="3.5" fill="#9D50BB"/>
<circle cx="27.5" cy="23.5" r="3.5" fill="#9D50BB"/>
<circle cx="27.5" cy="43.5" r="3.5" fill="#9D50BB"/>
<circle cx="27.5" cy="63.5" r="3.5" fill="#9D50BB"/>
<circle cx="27.5" cy="83.5" r="3.5" fill="#9D50BB"/>
<circle cx="27.5" cy="3.5" r="3.5" fill="#9D50BB"/>
<circle cx="27.5" cy="23.5" r="3.5" fill="#9D50BB"/>
<circle cx="27.5" cy="43.5" r="3.5" fill="#9D50BB"/>
<circle cx="27.5" cy="63.5" r="3.5" fill="#9D50BB"/>
<circle cx="27.5" cy="83.5" r="3.5" fill="#9D50BB"/>
<circle cx="27.5" cy="3.5" r="3.5" fill="#9D50BB"/>
<circle cx="27.5" cy="23.5" r="3.5" fill="#9D50BB"/>
<circle cx="27.5" cy="43.5" r="3.5" fill="#9D50BB"/>
<circle cx="27.5" cy="63.5" r="3.5" fill="#9D50BB"/>
<circle cx="27.5" cy="83.5" r="3.5" fill="#9D50BB"/>
<circle cx="27.5" cy="13.5" r="3.5" fill="black"/>
<circle cx="27.5" cy="33.5" r="3.5" fill="black"/>
<circle cx="27.5" cy="53.5" r="3.5" fill="black"/>
<circle cx="27.5" cy="73.5" r="3.5" fill="black"/>
<circle cx="27.5" cy="93.5" r="3.5" fill="black"/>
<circle cx="27.5" cy="13.5" r="3.5" fill="black"/>
<circle cx="27.5" cy="33.5" r="3.5" fill="black"/>
<circle cx="27.5" cy="53.5" r="3.5" fill="black"/>
<circle cx="27.5" cy="73.5" r="3.5" fill="black"/>
<circle cx="27.5" cy="93.5" r="3.5" fill="black"/>
<circle cx="39.5" cy="3.5" r="3.5" fill="black"/>
<circle cx="39.5" cy="23.5" r="3.5" fill="black"/>
<circle cx="39.5" cy="43.5" r="3.5" fill="black"/>
<circle cx="39.5" cy="63.5" r="3.5" fill="black"/>
<circle cx="39.5" cy="83.5" r="3.5" fill="black"/>
<circle cx="39.5" cy="3.5" r="3.5" fill="black"/>
<circle cx="39.5" cy="23.5" r="3.5" fill="black"/>
<circle cx="39.5" cy="43.5" r="3.5" fill="black"/>
<circle cx="39.5" cy="63.5" r="3.5" fill="black"/>
<circle cx="39.5" cy="83.5" r="3.5" fill="black"/>
<circle cx="39.5" cy="3.5" r="3.5" fill="black"/>
<circle cx="39.5" cy="23.5" r="3.5" fill="black"/>
<circle cx="39.5" cy="43.5" r="3.5" fill="black"/>
<circle cx="39.5" cy="63.5" r="3.5" fill="black"/>
<circle cx="39.5" cy="83.5" r="3.5" fill="black"/>
<circle cx="39.5" cy="3.5" r="3.5" fill="black"/>
<circle cx="39.5" cy="23.5" r="3.5" fill="black"/>
<circle cx="39.5" cy="43.5" r="3.5" fill="black"/>
<circle cx="39.5" cy="63.5" r="3.5" fill="black"/>
<circle cx="39.5" cy="83.5" r="3.5" fill="black"/>
<circle cx="39.5" cy="13.5" r="3.5" fill="#9D50BB"/>
<circle cx="39.5" cy="33.5" r="3.5" fill="#9D50BB"/>
<circle cx="39.5" cy="53.5" r="3.5" fill="#9D50BB"/>
<circle cx="39.5" cy="73.5" r="3.5" fill="#9D50BB"/>
<circle cx="39.5" cy="93.5" r="3.5" fill="#9D50BB"/>
<circle cx="39.5" cy="13.5" r="3.5" fill="#9D50BB"/>
<circle cx="39.5" cy="33.5" r="3.5" fill="#9D50BB"/>
<circle cx="39.5" cy="53.5" r="3.5" fill="#9D50BB"/>
<circle cx="39.5" cy="73.5" r="3.5" fill="#9D50BB"/>
<circle cx="39.5" cy="93.5" r="3.5" fill="#9D50BB"/>
<circle cx="51.5" cy="3.5" r="3.5" fill="black"/>
<circle cx="51.5" cy="23.5" r="3.5" fill="black"/>
<circle cx="51.5" cy="43.5" r="3.5" fill="black"/>
<circle cx="51.5" cy="63.5" r="3.5" fill="black"/>
<circle cx="51.5" cy="83.5" r="3.5" fill="black"/>
<circle cx="51.5" cy="3.5" r="3.5" fill="black"/>
<circle cx="51.5" cy="23.5" r="3.5" fill="black"/>
<circle cx="51.5" cy="43.5" r="3.5" fill="black"/>
<circle cx="51.5" cy="63.5" r="3.5" fill="black"/>
<circle cx="51.5" cy="83.5" r="3.5" fill="black"/>
<circle cx="51.5" cy="3.5" r="3.5" fill="black"/>
<circle cx="51.5" cy="23.5" r="3.5" fill="black"/>
<circle cx="51.5" cy="43.5" r="3.5" fill="black"/>
<circle cx="51.5" cy="63.5" r="3.5" fill="black"/>
<circle cx="51.5" cy="83.5" r="3.5" fill="black"/>
<circle cx="51.5" cy="3.5" r="3.5" fill="black"/>
<circle cx="51.5" cy="23.5" r="3.5" fill="black"/>
<circle cx="51.5" cy="43.5" r="3.5" fill="black"/>
<circle cx="51.5" cy="63.5" r="3.5" fill="black"/>
<circle cx="51.5" cy="83.5" r="3.5" fill="black"/>
<circle cx="51.5" cy="13.5" r="3.5" fill="#9D50BB"/>
<circle cx="51.5" cy="33.5" r="3.5" fill="#9D50BB"/>
<circle cx="51.5" cy="53.5" r="3.5" fill="#9D50BB"/>
<circle cx="51.5" cy="73.5" r="3.5" fill="#9D50BB"/>
<circle cx="51.5" cy="93.5" r="3.5" fill="#9D50BB"/>
<circle cx="51.5" cy="13.5" r="3.5" fill="#9D50BB"/>
<circle cx="51.5" cy="33.5" r="3.5" fill="#9D50BB"/>
<circle cx="51.5" cy="53.5" r="3.5" fill="#9D50BB"/>
<circle cx="51.5" cy="73.5" r="3.5" fill="#9D50BB"/>
<circle cx="51.5" cy="93.5" r="3.5" fill="#9D50BB"/>
<circle cx="63.5" cy="3.5" r="3.5" fill="#9D50BB"/>
<circle cx="63.5" cy="23.5" r="3.5" fill="#9D50BB"/>
<circle cx="63.5" cy="43.5" r="3.5" fill="#9D50BB"/>
<circle cx="63.5" cy="63.5" r="3.5" fill="#9D50BB"/>
<circle cx="63.5" cy="83.5" r="3.5" fill="#9D50BB"/>
<circle cx="63.5" cy="3.5" r="3.5" fill="#9D50BB"/>
<circle cx="63.5" cy="23.5" r="3.5" fill="#9D50BB"/>
<circle cx="63.5" cy="43.5" r="3.5" fill="#9D50BB"/>
<circle cx="63.5" cy="63.5" r="3.5" fill="#9D50BB"/>
<circle cx="63.5" cy="83.5" r="3.5" fill="#9D50BB"/>
<circle cx="63.5" cy="13.5" r="3.5" fill="black"/>
<circle cx="63.5" cy="33.5" r="3.5" fill="black"/>
<circle cx="63.5" cy="53.5" r="3.5" fill="black"/>
<circle cx="63.5" cy="73.5" r="3.5" fill="black"/>
<circle cx="63.5" cy="93.5" r="3.5" fill="black"/>
<circle cx="63.5" cy="13.5" r="3.5" fill="black"/>
<circle cx="63.5" cy="33.5" r="3.5" fill="black"/>
<circle cx="63.5" cy="53.5" r="3.5" fill="black"/>
<circle cx="63.5" cy="73.5" r="3.5" fill="black"/>
<circle cx="63.5" cy="93.5" r="3.5" fill="black"/>
<circle cx="75.5" cy="3.5" r="3.5" fill="black"/>
<circle cx="75.5" cy="23.5" r="3.5" fill="black"/>
<circle cx="75.5" cy="43.5" r="3.5" fill="black"/>
<circle cx="75.5" cy="63.5" r="3.5" fill="black"/>
<circle cx="75.5" cy="83.5" r="3.5" fill="black"/>
<circle cx="75.5" cy="3.5" r="3.5" fill="black"/>
<circle cx="75.5" cy="23.5" r="3.5" fill="black"/>
<circle cx="75.5" cy="43.5" r="3.5" fill="black"/>
<circle cx="75.5" cy="63.5" r="3.5" fill="black"/>
<circle cx="75.5" cy="83.5" r="3.5" fill="black"/>
<circle cx="75.5" cy="13.5" r="3.5" fill="#9D50BB"/>
<circle cx="75.5" cy="33.5" r="3.5" fill="#9D50BB"/>
<circle cx="75.5" cy="53.5" r="3.5" fill="#9D50BB"/>
<circle cx="75.5" cy="73.5" r="3.5" fill="#9D50BB"/>
<circle cx="75.5" cy="93.5" r="3.5" fill="#9D50BB"/>
<circle cx="75.5" cy="13.5" r="3.5" fill="#9D50BB"/>
<circle cx="75.5" cy="33.5" r="3.5" fill="#9D50BB"/>
<circle cx="75.5" cy="53.5" r="3.5" fill="#9D50BB"/>
<circle cx="75.5" cy="73.5" r="3.5" fill="#9D50BB"/>
<circle cx="75.5" cy="93.5" r="3.5" fill="#9D50BB"/>
<circle cx="87.5" cy="3.5" r="3.5" fill="black"/>
<circle cx="87.5" cy="23.5" r="3.5" fill="black"/>
<circle cx="87.5" cy="43.5" r="3.5" fill="black"/>
<circle cx="87.5" cy="63.5" r="3.5" fill="black"/>
<circle cx="87.5" cy="83.5" r="3.5" fill="black"/>
<circle cx="87.5" cy="3.5" r="3.5" fill="black"/>
<circle cx="87.5" cy="23.5" r="3.5" fill="black"/>
<circle cx="87.5" cy="43.5" r="3.5" fill="black"/>
<circle cx="87.5" cy="63.5" r="3.5" fill="black"/>
<circle cx="87.5" cy="83.5" r="3.5" fill="black"/>
<circle cx="87.5" cy="13.5" r="3.5" fill="#9D50BB"/>
<circle cx="87.5" cy="33.5" r="3.5" fill="#9D50BB"/>
<circle cx="87.5" cy="53.5" r="3.5" fill="#9D50BB"/>
<circle cx="87.5" cy="73.5" r="3.5" fill="#9D50BB"/>
<circle cx="87.5" cy="93.5" r="3.5" fill="#9D50BB"/>
<circle cx="87.5" cy="13.5" r="3.5" fill="#9D50BB"/>
<circle cx="87.5" cy="33.5" r="3.5" fill="#9D50BB"/>
<circle cx="87.5" cy="53.5" r="3.5" fill="#9D50BB"/>
<circle cx="87.5" cy="73.5" r="3.5" fill="#9D50BB"/>
<circle cx="87.5" cy="93.5" r="3.5" fill="#9D50BB"/>
<circle cx="99.5" cy="3.5" r="3.5" fill="#9D50BB"/>
<circle cx="99.5" cy="23.5" r="3.5" fill="#9D50BB"/>
<circle cx="99.5" cy="43.5" r="3.5" fill="#9D50BB"/>
<circle cx="99.5" cy="63.5" r="3.5" fill="#9D50BB"/>
<circle cx="99.5" cy="83.5" r="3.5" fill="#9D50BB"/>
<circle cx="99.5" cy="3.5" r="3.5" fill="#9D50BB"/>
<circle cx="99.5" cy="23.5" r="3.5" fill="#9D50BB"/>
<circle cx="99.5" cy="43.5" r="3.5" fill="#9D50BB"/>
<circle cx="99.5" cy="63.5" r="3.5" fill="#9D50BB"/>
<circle cx="99.5" cy="83.5" r="3.5" fill="#9D50BB"/>
<circle cx="99.5" cy="3.5" r="3.5" fill="#9D50BB"/>
<circle cx="99.5" cy="23.5" r="3.5" fill="#9D50BB"/>
<circle cx="99.5" cy="43.5" r="3.5" fill="#9D50BB"/>
<circle cx="99.5" cy="63.5" r="3.5" fill="#9D50BB"/>
<circle cx="99.5" cy="83.5" r="3.5" fill="#9D50BB"/>
<circle cx="99.5" cy="3.5" r="3.5" fill="#9D50BB"/>
<circle cx="99.5" cy="23.5" r="3.5" fill="#9D50BB"/>
<circle cx="99.5" cy="43.5" r="3.5" fill="#9D50BB"/>
<circle cx="99.5" cy="63.5" r="3.5" fill="#9D50BB"/>
<circle cx="99.5" cy="83.5" r="3.5" fill="#9D50BB"/>
<circle cx="99.5" cy="13.5" r="3.5" fill="#9D50BB"/>
<circle cx="99.5" cy="33.5" r="3.5" fill="#9D50BB"/>
<circle cx="99.5" cy="53.5" r="3.5" fill="#9D50BB"/>
<circle cx="99.5" cy="73.5" r="3.5" fill="#9D50BB"/>
<circle cx="99.5" cy="93.5" r="3.5" fill="#9D50BB"/>
<circle cx="99.5" cy="13.5" r="3.5" fill="black"/>
<circle cx="99.5" cy="33.5" r="3.5" fill="black"/>
<circle cx="99.5" cy="53.5" r="3.5" fill="black"/>
<circle cx="99.5" cy="73.5" r="3.5" fill="black"/>
<circle cx="99.5" cy="93.5" r="3.5" fill="black"/>
</svg>
